<?xml version="1.0" standalone="no"?>
<!DOCTYPE svg PUBLIC "-//W3C//DTD SVG 20010904//EN"
 "http://www.w3.org/TR/2001/REC-SVG-20010904/DTD/svg10.dtd">
<svg version="1.0" xmlns="http://www.w3.org/2000/svg"
 width="300.000000pt" height="208.000000pt" viewBox="0 0 300.000000 208.000000"
 preserveAspectRatio="xMidYMid meet">
<metadata>
Created by potrace 1.10, written by Peter Selinger 2001-2011
</metadata>
<g transform="translate(0.000000,208.000000) scale(0.100000,-0.100000)"
fill="#000000" stroke="none">
<path d="M1306 2063 c10 -7 25 -13 34 -13 9 0 22 -6 29 -12 11 -11 13 -10 8 5
-7 18 8 24 18 6 10 -15 -25 -50 -46 -47 -33 5 -24 -16 9 -23 18 -4 42 -15 52
-24 11 -10 20 -14 20 -8 0 5 -9 18 -20 28 -26 23 -20 29 14 14 14 -7 29 -10
32 -7 10 11 -36 88 -54 89 -9 1 -39 2 -65 3 -41 1 -46 0 -31 -11z"/>
<path d="M1180 2060 c0 -5 7 -10 15 -10 8 0 15 5 15 10 0 6 -7 10 -15 10 -8 0
-15 -4 -15 -10z"/>
<path d="M1160 2000 c-91 -63 -105 -68 -136 -46 -18 14 -18 15 -1 21 9 4 17
11 17 16 0 14 -23 11 -49 -8 l-24 -16 34 -18 34 -18 -32 -1 c-35 0 -40 -9 -23
-41 7 -13 7 -19 0 -19 -5 0 -16 16 -24 35 -8 19 -20 35 -25 35 -6 0 -8 7 -5
15 4 8 3 23 -2 33 -6 13 -9 9 -14 -18 -7 -35 -7 -35 -18 -10 -9 21 -11 22 -11
5 0 -23 16 -47 42 -61 17 -10 17 -12 -2 -35 l-20 -24 -1 23 c0 35 -14 26 -32
-22 l-16 -44 31 -7 32 -6 -44 -23 c-39 -21 -42 -24 -26 -33 15 -9 22 -6 35 10
12 14 23 18 36 13 18 -7 18 -8 2 -20 -11 -8 -14 -17 -7 -27 16 -25 10 -33 -11
-14 -31 28 -48 4 -42 -61 l4 -51 55 -19 55 -19 19 -75 c20 -77 73 -199 109
-250 l21 -29 -48 5 c-26 2 -253 16 -503 29 -250 14 -481 27 -513 30 -51 5 -57
4 -57 -13 0 -16 8 -19 47 -20 27 -1 84 -4 128 -7 578 -37 929 -53 945 -45 13
7 21 7 25 0 4 -6 24 -19 46 -30 46 -24 50 -49 15 -88 -13 -15 -36 -40 -50 -57
-22 -26 -27 -29 -45 -17 -34 20 -70 14 -135 -22 -34 -19 -110 -48 -171 -66
-122 -36 -167 -56 -238 -108 -45 -32 -120 -114 -157 -171 l-16 -23 -34 21
c-44 27 -80 27 -114 0 -38 -30 -37 -86 4 -122 44 -40 40 -82 -25 -278 -63
-188 -54 -179 -171 -179 -30 0 -54 -4 -54 -10 0 -6 38 -10 94 -10 l94 0 61
183 c40 120 61 198 61 230 0 47 -4 53 -55 95 -38 32 13 92 66 79 13 -3 38 -20
55 -36 l30 -29 25 51 c33 71 139 177 216 216 34 17 102 42 150 56 111 32 137
42 194 77 29 18 59 27 80 27 24 -1 27 -3 12 -6 -13 -2 -23 -9 -23 -14 0 -6 -4
-8 -8 -5 -14 8 -51 -22 -68 -56 l-16 -30 49 -50 c26 -28 91 -78 143 -112 52
-34 112 -77 132 -94 67 -59 150 -181 219 -320 59 -117 66 -138 52 -143 -16 -5
-16 -7 1 -16 10 -5 21 -24 24 -42 5 -21 18 -39 39 -52 l32 -21 -68 144 c-157
330 -252 516 -285 560 -20 26 -61 66 -93 89 -32 23 -75 58 -95 77 l-37 35 46
30 c25 17 58 50 73 74 25 39 29 41 41 27 8 -10 19 -29 25 -43 10 -23 11 -20 7
24 -10 130 -10 128 -58 148 -75 32 -166 156 -150 207 12 38 60 26 113 -27 76
-76 119 -166 137 -286 7 -46 18 -51 175 -93 121 -31 143 -44 79 -45 -37 0 -41
-2 -21 -10 21 -8 100 4 174 27 13 4 16 1 12 -10 -9 -23 26 -87 60 -107 17 -10
66 -30 109 -44 99 -32 178 -83 227 -149 83 -109 100 -186 100 -443 l0 -173
383 0 384 0 -7 42 c-12 76 -53 133 -87 121 -7 -3 -33 10 -59 28 -25 19 -41 35
-34 37 6 2 27 -8 46 -23 19 -15 45 -28 57 -29 12 -2 33 -6 47 -10 20 -6 16 1
-23 38 -46 43 -153 127 -186 146 -14 8 -15 10 0 25 14 14 25 7 127 -80 l112
-95 -1 62 c0 61 -1 62 -13 30 l-12 -33 -79 67 c-44 37 -103 89 -131 115 -56
52 -121 89 -157 89 -15 0 -28 8 -34 23 -11 23 -11 24 27 13 29 -7 42 -7 54 3
19 16 21 42 4 59 -23 23 20 13 60 -13 22 -14 75 -33 126 -44 66 -14 95 -25
114 -44 14 -15 24 -28 21 -31 -2 -2 -44 9 -92 24 -97 32 -177 47 -177 34 0 -5
65 -30 145 -55 122 -39 145 -44 146 -30 6 78 -33 112 -158 136 -62 12 -91 24
-145 61 -79 53 -124 69 -163 54 -23 -9 -31 -6 -58 16 -27 22 -38 25 -80 21
l-48 -4 6 49 7 48 -36 -21 c-36 -21 -73 -22 -69 -1 2 7 -8 12 -20 12 -13 0
-64 13 -113 30 -49 16 -92 30 -96 30 -4 0 -15 -14 -25 -30 -9 -16 -21 -30 -26
-30 -16 0 1 68 24 101 73 103 304 66 368 -58 16 -31 35 -40 345 -160 149 -58
276 -107 281 -109 10 -4 9 455 0 464 -3 4 -978 60 -1057 62 -11 0 -21 14 -29
40 -7 23 -17 39 -23 36 -28 -12 -133 -54 -150 -60 -17 -6 -16 -8 10 -28 22
-18 29 -19 32 -8 3 8 16 25 29 38 53 53 118 0 94 -79 -22 -73 -104 -112 -189
-90 -71 20 -79 91 -17 157 19 20 28 37 22 41 -12 7 -57 -41 -57 -61 0 -7 -9
-21 -21 -32 -17 -16 -22 -16 -31 -4 -8 12 -9 12 -4 -2 4 -15 -1 -18 -27 -18
-18 0 -50 5 -71 11 -30 8 -36 13 -25 20 10 7 5 8 -13 3 -22 -5 -34 0 -59 25
-40 40 -29 55 11 16 22 -21 30 -25 30 -13 0 9 -19 34 -42 55 -77 70 -101 98
-119 138 -24 52 -24 71 3 168 16 60 19 82 10 85 -7 2 -12 8 -12 13 0 6 5 7 12
3 19 -12 0 58 -22 81 -20 19 -20 19 -20 0 -1 -14 -7 -8 -22 20 l-21 40 -10
-29 c-7 -21 -12 -25 -18 -15 -5 8 -9 22 -9 32 0 23 31 22 81 -4 42 -21 80 -22
86 -2 3 7 -3 9 -16 6 -15 -4 -30 4 -50 26 -22 24 -38 31 -66 31 -39 0 -46 22
-9 28 10 2 24 9 29 14 7 7 3 9 -14 5 -26 -6 -72 8 -83 26 -5 8 -8 7 -8 -5 0
-9 -3 -23 -6 -31 -4 -11 2 -16 18 -19 18 -2 23 -9 23 -33 0 -18 -5 -30 -12
-29 -7 1 -27 2 -43 3 -30 1 -30 1 -14 26 10 16 14 34 9 54 -6 30 -6 30 -26 10
-11 -11 -17 -24 -14 -29 3 -5 -4 -19 -15 -30 l-21 -21 21 -36 c23 -39 21 -53
-3 -28 -21 21 -27 19 -27 -7 0 -17 -6 -23 -22 -24 -13 0 -31 -4 -40 -8 -16 -7
-17 -4 -12 25 9 43 10 45 29 29 13 -11 19 -10 33 5 16 17 16 17 -5 12 -27 -6
-28 0 -8 27 8 11 15 34 15 50 1 24 8 36 33 51 18 11 39 36 48 54 10 21 19 30
23 23 4 -7 16 -12 28 -12 17 0 18 2 8 15 -10 12 -10 15 3 15 8 0 18 6 21 13 3
6 4 -1 3 -18 -1 -19 -10 -33 -23 -40 -19 -9 -20 -13 -9 -28 12 -17 15 -17 51
2 44 24 76 26 140 10 33 -9 42 -14 32 -21 -9 -6 -6 -7 9 -3 12 3 32 1 44 -5
12 -7 19 -8 16 -3 -3 4 -42 26 -86 48 -84 40 -99 55 -56 55 20 0 25 5 25 24 0
13 7 30 16 37 15 12 14 14 -12 21 -16 3 -38 9 -49 12 -14 4 -46 -13 -105 -54z
m100 20 c0 -5 -4 -10 -10 -10 -5 0 -10 5 -10 10 0 6 5 10 10 10 6 0 10 -4 10
-10z m-40 -35 c0 -16 -6 -25 -16 -25 -11 0 -14 5 -10 16 3 9 6 20 6 25 0 5 5
9 10 9 6 0 10 -11 10 -25z m30 -45 c0 -5 -4 -10 -10 -10 -5 0 -10 5 -10 10 0
6 5 10 10 10 6 0 10 -4 10 -10z m-40 -10 c0 -5 -7 -10 -16 -10 -8 0 -12 5 -9
10 3 6 10 10 16 10 5 0 9 -4 9 -10z m-178 -42 c-6 -6 -15 -8 -19 -4 -4 4 -1
11 7 16 8 5 17 7 19 4 3 -2 -1 -10 -7 -16z m-50 -63 c15 -33 -5 -60 -33 -44
-11 5 -17 14 -14 20 4 5 11 7 16 4 5 -4 9 -1 9 5 0 6 -9 10 -20 8 -10 -2 -19
0 -20 5 -1 23 2 27 25 27 17 0 29 -8 37 -25z m283 -75 c3 -5 1 -10 -4 -10 -6
0 -11 5 -11 10 0 6 2 10 4 10 3 0 8 -4 11 -10z m-164 -43 c-1 -12 -15 -9 -19
4 -3 6 1 10 8 8 6 -3 11 -8 11 -12z m57 -18 c7 -12 11 -24 8 -27 -6 -6 -35 27
-36 41 0 14 15 7 28 -14z m82 -52 c0 -6 -9 -2 -20 8 -11 10 -20 23 -20 28 0 6
9 2 20 -8 11 -10 20 -23 20 -28z m-346 2 c-8 -13 -24 -1 -24 18 0 13 3 13 15
3 8 -7 12 -16 9 -21z m151 21 c3 -5 2 -10 -4 -10 -5 0 -13 5 -16 10 -3 6 -2
10 4 10 5 0 13 -4 16 -10z m50 0 c3 -5 1 -10 -4 -10 -6 0 -11 5 -11 10 0 6 2
10 4 10 3 0 8 -4 11 -10z m39 -6 c11 -28 6 -39 -9 -20 -8 11 -15 23 -15 28 0
14 18 9 24 -8z m-124 -39 c-12 -15 -30 -12 -30 5 0 8 31 19 39 13 2 -1 -2 -9
-9 -18z m88 9 c12 -8 22 -21 22 -28 0 -17 35 -48 43 -39 4 3 7 1 7 -5 0 -23
30 -12 36 13 3 13 13 30 22 37 13 11 14 11 10 -2 -3 -8 2 -23 10 -33 14 -15
14 -25 4 -63 -21 -80 -16 -150 17 -208 17 -28 41 -62 55 -75 14 -14 26 -34 26
-47 0 -20 84 -134 99 -134 4 0 13 6 20 13 10 10 15 8 27 -7 20 -28 18 -59 -3
-52 -10 2 -38 10 -63 17 -62 17 -77 32 -95 98 -26 93 -45 133 -91 198 -70 98
-142 136 -184 98 -16 -15 -19 -11 -34 52 -10 37 -23 80 -31 95 -15 31 -8 46
10 21 11 -15 15 -15 29 -4 9 8 14 21 11 29 -5 14 11 42 24 42 4 0 17 -7 29
-16z m103 0 c12 -14 11 -16 -5 -13 -11 2 -21 10 -24 17 -5 17 13 15 29 -4z
m79 2 c0 -11 -19 -15 -25 -6 -3 5 1 10 9 10 9 0 16 -2 16 -4z m-370 -20 c0
-11 -19 -15 -25 -6 -3 5 1 10 9 10 9 0 16 -2 16 -4z m60 -6 c0 -5 -7 -10 -16
-10 -8 0 -12 5 -9 10 3 6 10 10 16 10 5 0 9 -4 9 -10z m60 -10 c0 -5 -2 -10
-4 -10 -3 0 -8 5 -11 10 -3 6 -1 10 4 10 6 0 11 -4 11 -10z m-100 -10 c0 -5
-2 -10 -4 -10 -3 0 -8 5 -11 10 -3 6 -1 10 4 10 6 0 11 -4 11 -10z m1559 -495
c256 -14 467 -27 469 -30 11 -10 15 -385 4 -385 -5 0 -102 35 -214 78 -111 44
-235 91 -275 106 -62 24 -77 34 -108 77 -28 39 -51 57 -101 81 -118 55 -234
37 -295 -45 -29 -40 -38 -117 -15 -136 14 -12 20 -11 39 7 22 20 22 20 46 1
22 -18 25 -18 42 -4 16 15 21 15 63 1 26 -9 53 -16 60 -16 7 0 23 -11 36 -25
20 -22 25 -23 43 -10 18 13 21 11 36 -18 15 -29 20 -32 56 -29 31 2 50 -4 78
-23 21 -14 45 -25 55 -25 14 0 14 -3 -4 -20 l-20 -21 -68 36 c-77 40 -105 43
-131 15 -17 -19 -17 -21 -1 -39 9 -10 43 -26 75 -35 32 -9 68 -27 81 -41 13
-14 31 -27 40 -30 10 -3 25 -24 35 -48 9 -23 21 -50 26 -59 5 -10 9 -24 9 -32
0 -7 7 -20 16 -27 14 -11 18 -11 28 2 26 35 47 31 110 -24 33 -30 73 -62 88
-71 l28 -18 -23 -18 c-18 -15 -20 -22 -11 -37 18 -29 94 -83 118 -83 16 0 29
-12 44 -39 43 -76 64 -71 -333 -71 l-355 0 0 153 c-1 248 -23 346 -106 456
-56 75 -139 131 -246 167 -121 40 -130 48 -148 120 -7 31 -6 32 34 40 22 4 49
7 60 6 26 -3 47 17 45 42 -1 12 3 32 9 46 6 14 12 32 15 40 3 11 17 14 53 12
27 -1 258 -13 513 -27z m-1032 0 c9 -25 -4 -29 -17 -6 -7 15 -7 21 0 21 6 0
13 -7 17 -15z m83 -30 c0 -8 -4 -15 -10 -15 -5 0 -10 7 -10 15 0 8 5 15 10 15
6 0 10 -7 10 -15z m50 1 c0 -8 5 -16 12 -18 6 -2 8 -10 4 -16 -10 -17 -29 -15
-23 3 4 8 2 17 -3 20 -13 8 -13 25 0 25 6 0 10 -6 10 -14z m-240 -26 c0 -5 -5
-10 -11 -10 -5 0 -7 5 -4 10 3 6 8 10 11 10 2 0 4 -4 4 -10z m205 -48 c-8 -9
-25 20 -18 31 3 5 10 2 15 -7 6 -10 7 -20 3 -24z m325 28 c0 -5 -7 -10 -16
-10 -8 0 -12 5 -9 10 3 6 10 10 16 10 5 0 9 -4 9 -10z m-204 -52 c-6 -4 -20
-8 -32 -8 -17 0 -20 5 -16 30 l4 30 28 -23 c17 -14 23 -25 16 -29z m-72 18
c-3 -9 -13 -16 -22 -16 -13 0 -12 3 3 20 20 23 29 21 19 -4z m-521 -111 c15
-19 63 -61 106 -94 43 -33 81 -67 84 -75 10 -24 -50 15 -62 41 -13 28 -57 40
-84 23 -18 -11 -25 -6 -70 38 -47 47 -50 53 -39 76 16 35 32 33 65 -9z m987
-2 c0 -13 -3 -13 -15 -3 -8 7 -15 16 -15 21 0 5 7 6 15 3 8 -4 15 -13 15 -21z
m-892 -129 c22 -15 30 -44 12 -44 -5 0 -10 6 -10 14 0 8 -11 17 -25 20 -14 4
-23 11 -20 16 8 14 17 13 43 -6z m1440 -31 c26 -11 32 -17 20 -20 -9 -2 -34 5
-55 16 -46 25 -19 28 35 4z m-1368 -45 c0 -6 -7 -5 -15 2 -8 7 -15 17 -15 22
0 6 7 5 15 -2 8 -7 15 -17 15 -22z m1155 5 c40 -21 107 -74 101 -81 -6 -6 -57
26 -71 45 -6 8 -41 22 -78 32 -37 9 -64 21 -60 25 10 10 70 -2 108 -21z
m-1082 -53 c16 -17 26 -34 23 -38 -7 -6 -86 67 -86 80 0 14 33 -8 63 -42z
m1262 29 c57 -21 76 -46 28 -36 -47 10 -104 37 -98 47 8 13 5 13 70 -11z m-30
-121 c18 -60 17 -58 7 -58 -4 0 -13 19 -20 43 -7 23 -15 48 -18 55 -3 6 -1 12
5 12 6 0 17 -23 26 -52z m-1175 4 c0 -15 -2 -15 -10 -2 -13 20 -13 33 0 25 6
-3 10 -14 10 -23z m1326 -64 c43 -31 53 -57 26 -66 -7 -2 -33 16 -57 41 -23
25 -52 48 -64 52 -11 3 -21 13 -21 21 0 12 5 12 35 -1 20 -8 56 -29 81 -47z
m-71 3 c10 -17 -12 -21 -25 -6 -10 12 -10 15 3 15 9 0 18 -4 22 -9z m-45 -41
c0 -5 -4 -10 -10 -10 -5 0 -10 5 -10 10 0 6 5 10 10 10 6 0 10 -4 10 -10z"/>
<path d="M1110 1535 c-11 -13 -11 -19 3 -33 20 -19 41 -5 35 24 -4 24 -22 28
-38 9z m30 -15 c0 -5 -4 -10 -10 -10 -5 0 -10 5 -10 10 0 6 5 10 10 10 6 0 10
-4 10 -10z"/>
<path d="M1520 2053 c0 -10 89 -58 95 -51 3 3 -17 17 -45 32 -27 15 -50 24
-50 19z"/>
<path d="M1490 2025 c7 -8 20 -15 29 -15 13 1 13 3 -3 15 -26 19 -42 19 -26 0z"/>
<path d="M938 2025 c-6 -11 10 -61 17 -53 2 2 1 17 -3 33 -5 16 -11 25 -14 20z"/>
<path d="M1630 1991 c0 -6 5 -13 10 -16 6 -3 10 1 10 9 0 9 -4 16 -10 16 -5 0
-10 -4 -10 -9z"/>
<path d="M1550 1980 c0 -5 7 -10 16 -10 8 0 12 5 9 10 -3 6 -10 10 -16 10 -5
0 -9 -4 -9 -10z"/>
<path d="M1630 1950 c0 -5 5 -10 11 -10 5 0 7 5 4 10 -3 6 -8 10 -11 10 -2 0
-4 -4 -4 -10z"/>
<path d="M1360 1930 c0 -5 7 -10 15 -10 8 0 15 5 15 10 0 6 -7 10 -15 10 -8 0
-15 -4 -15 -10z"/>
<path d="M1246 1871 c-3 -5 1 -14 8 -20 18 -15 28 0 10 16 -7 7 -15 9 -18 4z"/>
<path d="M1300 1860 c0 -5 7 -10 15 -10 8 0 15 5 15 10 0 6 -7 10 -15 10 -8 0
-15 -4 -15 -10z"/>
<path d="M1730 1866 c0 -11 43 -77 47 -72 6 6 -24 63 -37 71 -5 3 -10 4 -10 1z"/>
<path d="M1450 1848 c0 -11 57 -10 65 2 3 5 -9 9 -30 8 -19 -1 -35 -5 -35 -10z"/>
<path d="M804 1704 c-7 -26 12 -74 28 -74 5 0 1 11 -7 24 -12 18 -13 30 -6 50
7 16 7 26 1 26 -5 0 -13 -12 -16 -26z"/>
<path d="M1790 1630 c-8 -5 -11 -12 -7 -16 4 -4 13 -2 19 4 15 15 7 24 -12 12z"/>
<path d="M1805 1586 c-44 -19 -72 -53 -59 -73 6 -9 17 -19 25 -21 11 -4 12 -2
2 9 -24 24 -16 41 16 34 24 -5 32 -2 41 15 6 12 10 27 8 35 -2 11 -8 11 -33 1z"/>
<path d="M1495 1522 c-49 -25 -84 -47 -78 -49 14 -5 193 77 193 88 0 16 -24 8
-115 -39z"/>
<path d="M1350 1529 c0 -5 5 -7 10 -4 6 3 10 8 10 11 0 2 -4 4 -10 4 -5 0 -10
-5 -10 -11z"/>
<path d="M1374 1516 c-3 -14 -1 -33 5 -43 8 -15 10 -10 11 25 0 47 -6 55 -16
18z"/>
<path d="M1647 1489 c-25 -28 -27 -29 -27 -10 0 31 -23 35 -75 15 -60 -22 -95
-50 -95 -75 0 -10 -4 -19 -10 -19 -5 0 -10 -5 -10 -11 0 -5 6 -7 12 -3 7 5 27
7 45 5 28 -2 33 1 33 20 0 22 0 22 -15 3 -11 -14 -14 -15 -14 -4 -1 8 8 26 19
40 19 23 21 24 31 7 6 -11 20 -17 32 -15 12 1 27 -1 34 -5 18 -11 91 58 78 72
-8 8 -19 1 -38 -20z"/>
<path d="M1332 1488 c-7 -9 -6 -17 3 -25 10 -9 14 -7 18 13 5 26 -4 31 -21 12z"/>
<path d="M1370 1421 c0 -6 5 -13 10 -16 6 -3 10 1 10 9 0 9 -4 16 -10 16 -5 0
-10 -4 -10 -9z"/>
<path d="M1545 1410 c-3 -5 -1 -10 4 -10 6 0 11 5 11 10 0 6 -2 10 -4 10 -3 0
-8 -4 -11 -10z"/>
<path d="M1678 1374 c-11 -11 -10 -62 2 -85 13 -24 29 -24 46 -2 18 26 24 13
14 -32 -5 -22 -8 -41 -6 -42 1 -1 12 4 24 13 14 10 22 26 22 44 0 57 -23 77
-50 45 -23 -27 -39 -17 -42 26 -2 22 -6 37 -10 33z"/>
<path d="M1745 1360 c-3 -5 3 -10 15 -10 12 0 18 5 15 10 -3 6 -10 10 -15 10
-5 0 -12 -4 -15 -10z"/>
<path d="M1091 1328 c-1 -15 4 -30 9 -33 12 -7 12 12 0 40 -8 18 -9 17 -9 -7z"/>
<path d="M1130 1340 c0 -5 5 -10 10 -10 6 0 10 5 10 10 0 6 -4 10 -10 10 -5 0
-10 -4 -10 -10z"/>
<path d="M1806 1338 c-4 -9 -2 -26 4 -38 16 -30 20 -22 11 20 -6 26 -10 31
-15 18z"/>
<path d="M1147 1303 c-4 -3 -7 -17 -7 -30 0 -18 9 -28 36 -39 20 -8 38 -13 41
-10 12 11 -8 38 -36 47 -20 7 -28 15 -24 25 5 15 1 18 -10 7z"/>
<path d="M1171 1294 c0 -11 3 -14 6 -6 3 7 2 16 -1 19 -3 4 -6 -2 -5 -13z"/>
<path d="M1785 1220 c-4 -6 3 -10 14 -10 25 0 27 6 6 13 -8 4 -17 2 -20 -3z"/>
<path d="M1460 1166 c0 -2 7 -9 15 -16 12 -10 15 -10 15 4 0 9 -7 16 -15 16
-8 0 -15 -2 -15 -4z"/>
<path d="M1770 1100 c-41 -22 -49 -29 -32 -30 27 0 73 22 91 44 19 23 4 19
-59 -14z"/>
<path d="M1731 1037 c-11 -15 -5 -27 14 -27 6 0 11 9 12 20 2 23 -10 26 -26 7z"/>
<path d="M1221 990 c-1 -26 106 -197 116 -186 3 3 -17 40 -45 83 -28 43 -55
89 -61 103 l-10 25 0 -25z"/>
<path d="M1300 960 c0 -5 5 -10 10 -10 6 0 10 5 10 10 0 6 -4 10 -10 10 -5 0
-10 -4 -10 -10z"/>
<path d="M1359 953 c15 -29 32 -40 71 -45 19 -3 44 -8 55 -12 19 -7 19 -7 3 7
-25 20 -23 30 3 17 11 -7 23 -9 26 -6 11 10 -9 26 -48 36 -22 6 -47 14 -55 17
-8 3 -14 -1 -14 -11 0 -11 9 -16 33 -16 28 -1 30 -2 13 -11 -22 -13 -68 3 -64
23 2 6 -5 14 -15 16 -16 3 -17 1 -8 -15z"/>
<path d="M1290 924 c0 -8 5 -12 10 -9 6 4 8 11 5 16 -9 14 -15 11 -15 -7z"/>
<path d="M1150 911 c0 -5 -6 -11 -12 -14 -7 -2 -5 -3 4 -2 12 2 29 -14 50 -47
42 -65 48 -46 7 21 -30 47 -49 64 -49 42z"/>
<path d="M1430 890 c0 -11 5 -14 68 -39 29 -11 52 -16 52 -11 0 6 -8 13 -17
16 -10 3 -37 14 -60 25 -24 10 -43 15 -43 9z"/>
<path d="M1515 890 c-3 -5 3 -10 15 -10 12 0 18 5 15 10 -3 6 -10 10 -15 10
-5 0 -12 -4 -15 -10z"/>
<path d="M1245 880 c3 -5 8 -10 11 -10 2 0 4 5 4 10 0 6 -5 10 -11 10 -5 0 -7
-4 -4 -10z"/>
<path d="M1400 880 c0 -5 5 -10 11 -10 5 0 7 5 4 10 -3 6 -8 10 -11 10 -2 0
-4 -4 -4 -10z"/>
<path d="M1650 880 c20 -13 33 -13 25 0 -3 6 -14 10 -23 10 -15 0 -15 -2 -2
-10z"/>
<path d="M2240 870 c0 -5 5 -10 10 -10 6 0 10 5 10 10 0 6 -4 10 -10 10 -5 0
-10 -4 -10 -10z"/>
<path d="M1575 860 c3 -5 8 -10 11 -10 2 0 4 5 4 10 0 6 -5 10 -11 10 -5 0 -7
-4 -4 -10z"/>
<path d="M2285 850 c4 -6 11 -8 16 -5 14 9 11 15 -7 15 -8 0 -12 -5 -9 -10z"/>
<path d="M1765 763 c4 -15 9 -34 11 -42 2 -8 9 -94 15 -193 9 -168 5 -283 -18
-477 -4 -35 -3 -52 4 -48 9 5 24 124 27 210 1 15 3 27 6 27 12 0 30 -25 30
-40 0 -31 30 -115 50 -140 17 -21 16 -16 -5 34 -14 32 -28 77 -31 100 -12 82
48 144 129 133 27 -4 36 -2 29 5 -31 31 -138 0 -149 -43 -3 -10 -10 -19 -15
-19 -23 0 -36 73 -41 235 -6 168 -20 269 -38 281 -6 3 -7 -6 -4 -23z m65 -499
c0 -8 -4 -12 -10 -9 -5 3 -10 13 -10 21 0 8 5 12 10 9 6 -3 10 -13 10 -21z"/>
<path d="M1416 663 c142 -262 253 -528 255 -613 l0 -25 10 25 c6 13 16 32 24
40 11 12 15 79 17 337 l3 322 -21 -20 c-40 -38 -250 -18 -315 30 -15 12 -30
21 -32 21 -3 0 24 -53 59 -117z m87 22 c37 -6 44 -10 40 -26 -6 -22 -20 -34
-48 -43 -17 -5 -25 2 -43 40 -17 34 -19 45 -9 41 8 -3 35 -8 60 -12z m202
-287 c-4 -161 -10 -297 -13 -302 -3 -5 -24 45 -47 110 -22 65 -66 170 -96 232
-30 62 -51 116 -47 118 5 3 25 -4 44 -15 40 -24 50 -26 37 -8 -5 6 -15 25 -21
40 -11 27 -11 28 9 22 15 -5 19 -4 15 4 -4 6 -14 11 -22 11 -8 0 -14 4 -14 9
0 5 20 6 45 3 25 -2 45 0 45 5 0 5 -16 9 -35 9 -52 0 -63 19 -12 20 24 0 56 8
72 16 17 9 34 16 38 17 5 1 6 -131 2 -291z m-165 177 c10 -12 10 -15 -4 -15
-9 0 -16 7 -16 15 0 8 2 15 4 15 2 0 9 -7 16 -15z"/>
<path d="M1621 565 c1 -48 1 -49 9 -15 5 19 4 41 0 50 -6 10 -9 -1 -9 -35z"/>
<path d="M1610 448 c0 -19 2 -20 10 -8 13 19 13 30 0 30 -5 0 -10 -10 -10 -22z"/>
<path d="M1114 685 c11 -8 25 -15 30 -15 6 0 2 7 -8 15 -11 8 -25 15 -30 15
-6 0 -2 -7 8 -15z"/>
<path d="M690 570 c0 -5 8 -10 18 -10 10 0 31 -13 47 -30 30 -31 55 -39 55
-17 0 22 -15 36 -53 52 -42 17 -67 19 -67 5z"/>
<path d="M2698 528 c22 -25 177 -91 237 -102 15 -3 33 -10 40 -16 9 -8 14 -6
19 6 7 18 -8 34 -32 34 -10 0 -148 49 -267 95 -18 7 -18 6 3 -17z"/>
<path d="M436 527 c-17 -12 -17 -16 -3 -43 12 -24 13 -38 4 -77 -7 -33 -7 -53
1 -69 10 -21 11 -19 11 18 1 23 6 55 12 73 8 24 8 35 -1 46 -7 8 -10 26 -6 40
7 29 6 30 -18 12z"/>
<path d="M2171 490 c1 -14 7 -47 15 -75 l13 -50 -4 57 c-4 59 -25 119 -24 68z"/>
<path d="M647 474 c-4 -4 -7 -14 -7 -23 0 -11 3 -12 11 -4 6 6 10 16 7 23 -2
6 -7 8 -11 4z"/>
<path d="M885 469 c-11 -17 1 -21 15 -4 8 9 8 15 2 15 -6 0 -14 -5 -17 -11z"/>
<path d="M569 439 c13 -11 27 -17 30 -13 7 7 -28 34 -43 34 -6 -1 0 -10 13
-21z"/>
<path d="M750 410 c0 -5 5 -10 10 -10 6 0 10 5 10 10 0 6 -4 10 -10 10 -5 0
-10 -4 -10 -10z"/>
<path d="M855 405 c-62 -153 -61 -153 -40 -135 18 15 57 118 52 139 -3 13 -5
12 -12 -4z"/>
<path d="M550 381 c0 -6 10 -15 21 -22 17 -9 20 -17 16 -45 -7 -42 9 -45 18
-4 7 32 -4 53 -37 71 -12 6 -18 6 -18 0z"/>
<path d="M660 301 c0 -25 6 -27 13 -6 4 8 2 17 -3 20 -6 4 -10 -3 -10 -14z"/>
<path d="M703 308 c0 -7 -4 -26 -7 -43 -7 -28 -7 -29 8 -11 17 21 22 66 8 66
-5 0 -9 -6 -9 -12z"/>
<path d="M1921 306 c-53 -30 -67 -117 -30 -193 28 -57 36 -50 9 8 -36 81 -21
147 41 180 19 10 27 18 19 18 -8 0 -26 -6 -39 -13z"/>
<path d="M2072 267 c18 -24 34 -40 36 -36 5 12 -28 59 -50 70 -13 7 -8 -4 14
-34z"/>
<path d="M1920 270 c-15 -15 -20 -33 -20 -73 0 -142 174 -221 192 -86 2 13 -1
25 -7 27 -5 1 -12 -14 -15 -35 -4 -27 -9 -37 -20 -34 -8 3 -30 4 -48 3 -25 -2
-34 3 -41 20 -5 13 -18 32 -30 42 -22 20 -28 51 -11 61 6 3 10 11 10 16 0 6
-4 8 -9 5 -4 -3 -6 6 -3 20 5 25 44 49 66 40 6 -2 3 -5 -7 -5 -10 -1 -15 -6
-12 -11 4 -7 12 -7 23 -1 20 11 52 -3 52 -23 0 -8 9 -24 20 -37 17 -21 19 -22
20 -5 0 10 -17 36 -39 57 -45 45 -88 52 -121 19z m110 -210 c0 -5 -5 -10 -11
-10 -5 0 -7 5 -4 10 3 6 8 10 11 10 2 0 4 -4 4 -10z"/>
<path d="M2194 277 c3 -10 6 -32 6 -48 0 -16 5 -29 11 -29 14 0 3 70 -13 85
-8 7 -9 4 -4 -8z"/>
<path d="M390 262 c0 -5 7 -15 15 -22 8 -7 15 -8 15 -2 0 5 -7 15 -15 22 -8 7
-15 8 -15 2z"/>
<path d="M956 245 c9 -52 9 -60 -1 -60 -5 0 -10 5 -10 12 0 6 -4 15 -8 19 -8
9 -9 -28 -1 -50 3 -9 10 -14 14 -11 16 10 20 -12 9 -44 -14 -39 -33 -35 -37 7
-4 44 -16 40 -37 -13 -9 -25 -28 -59 -41 -74 l-24 -28 52 2 c47 2 56 7 85 41
38 45 51 80 34 97 -6 6 -11 25 -11 41 -1 17 -7 45 -15 61 l-15 30 6 -30z m-50
-211 c-25 -18 -31 -12 -16 16 9 17 15 19 23 10 9 -9 7 -15 -7 -26z"/>
<path d="M765 240 c-3 -5 -1 -10 4 -10 6 0 11 5 11 10 0 6 -2 10 -4 10 -3 0
-8 -4 -11 -10z"/>
<path d="M1940 230 c0 -5 7 -10 16 -10 8 0 12 5 9 10 -3 6 -10 10 -16 10 -5 0
-9 -4 -9 -10z"/>
<path d="M2000 231 c0 -6 5 -13 10 -16 6 -3 10 1 10 9 0 9 -4 16 -10 16 -5 0
-10 -4 -10 -9z"/>
<path d="M827 223 c-4 -3 -7 -11 -7 -17 0 -6 5 -5 12 2 6 6 9 14 7 17 -3 3 -9
2 -12 -2z"/>
<path d="M1020 216 c0 -9 5 -16 10 -16 6 0 10 4 10 9 0 6 -4 13 -10 16 -5 3
-10 -1 -10 -9z"/>
<path d="M660 190 c0 -5 5 -10 10 -10 6 0 10 5 10 10 0 6 -4 10 -10 10 -5 0
-10 -4 -10 -10z"/>
<path d="M2110 180 c0 -5 5 -10 10 -10 6 0 10 5 10 10 0 6 -4 10 -10 10 -5 0
-10 -4 -10 -10z"/>
<path d="M1930 165 c0 -8 5 -15 10 -15 6 0 10 7 10 15 0 8 -4 15 -10 15 -5 0
-10 -7 -10 -15z"/>
<path d="M2050 166 c0 -9 5 -16 10 -16 6 0 10 4 10 9 0 6 -4 13 -10 16 -5 3
-10 -1 -10 -9z"/>
<path d="M1500 105 c-30 -17 -121 -20 -138 -3 -9 9 -13 7 -18 -7 -8 -21 14
-66 36 -73 8 -3 12 -1 7 3 -15 16 26 45 63 45 26 0 45 8 64 25 30 28 24 32
-14 10z m-120 -40 c0 -8 -4 -15 -10 -15 -5 0 -10 7 -10 15 0 8 5 15 10 15 6 0
10 -7 10 -15z"/>
<path d="M2128 114 c-5 -4 -8 -21 -8 -38 0 -17 -9 -40 -22 -53 -12 -13 -16
-23 -10 -23 6 0 14 5 17 10 4 6 15 8 26 5 22 -7 37 18 21 38 -6 6 -12 25 -14
40 -1 16 -6 25 -10 21z m22 -73 c0 -6 -4 -13 -10 -16 -5 -3 -10 1 -10 9 0 9 5
16 10 16 6 0 10 -4 10 -9z"/>
<path d="M1026 101 c-4 -7 -5 -15 -2 -18 9 -9 19 4 14 18 -4 11 -6 11 -12 0z"/>
<path d="M1972 99 c2 -6 8 -10 13 -10 5 0 11 4 13 10 2 6 -4 11 -13 11 -9 0
-15 -5 -13 -11z"/>
<path d="M2035 100 c3 -5 11 -10 16 -10 6 0 7 5 4 10 -3 6 -11 10 -16 10 -6 0
-7 -4 -4 -10z"/>
<path d="M1523 84 c-3 -9 -2 -24 4 -33 12 -19 43 -27 43 -12 0 6 -6 11 -14 11
-23 0 -28 17 -10 34 14 15 14 16 -1 16 -8 0 -18 -7 -22 -16z"/>
<path d="M1700 50 c-9 -21 -10 -34 -3 -41 7 -7 12 2 16 27 8 48 3 53 -13 14z"/>
<path d="M432 41 c-10 -28 -9 -29 24 -33 19 -2 33 -2 31 1 -1 4 -9 18 -16 34
-18 35 -27 34 -39 -2z"/>
<path d="M981 36 l-32 -33 53 5 c48 4 158 43 158 56 0 3 -33 5 -74 5 -70 0
-75 -2 -105 -33z"/>
<path d="M2085 50 c-20 -22 -98 -29 -110 -10 -3 6 -11 10 -17 10 -24 0 16 -30
49 -36 40 -8 77 6 93 36 14 25 8 26 -15 0z"/>
<path d="M2203 35 c0 -22 2 -30 4 -17 2 12 2 30 0 40 -3 9 -5 -1 -4 -23z"/>
<path d="M1440 45 c7 -9 15 -13 17 -11 7 7 -7 26 -19 26 -6 0 -6 -6 2 -15z"/>
<path d="M1848 49 c-10 -5 -23 -20 -29 -32 l-12 -22 25 22 c13 13 30 23 36 23
7 0 12 5 12 10 0 13 -10 12 -32 -1z"/>
<path d="M1483 25 c-3 -9 -3 -19 1 -22 3 -4 6 -1 6 6 0 7 5 9 13 4 6 -4 23 -9
37 -11 24 -3 24 -2 -5 18 -36 24 -44 25 -52 5z"/>
<path d="M1747 34 c-4 -4 -7 -14 -7 -23 0 -11 3 -12 11 -4 6 6 10 16 7 23 -2
6 -7 8 -11 4z"/>
<path d="M1852 17 c-10 -12 -7 -14 18 -13 16 1 28 6 27 11 -6 16 -33 17 -45 2z"/>
<path d="M1920 18 c0 -7 14 -14 32 -15 29 -2 30 -1 12 12 -24 18 -44 19 -44 3z"/>
<path d="M1415 10 c3 -5 11 -10 16 -10 6 0 7 5 4 10 -3 6 -11 10 -16 10 -6 0
-7 -4 -4 -10z"/>
</g>
</svg>
